<?xml version="1.0" encoding="utf-8"?>
<!-- Generator: Adobe Illustrator 28.0.0, SVG Export Plug-In . SVG Version: 6.00 Build 0)  -->
<svg version="1.1" id="Calque_1" xmlns="http://www.w3.org/2000/svg" xmlns:xlink="http://www.w3.org/1999/xlink" x="0px" y="0px"
	 viewBox="0 0 1280 1243" style="enable-background:new 0 0 1280 1243;" xml:space="preserve">
<style type="text/css">
	.st0{fill:#FFFFFF;}
</style>
<g transform="translate(0.000000,1243.000000) scale(0.100000,-0.100000)">
	<path class="st0" d="M6320,12230l-185-200l-5-266l-5-265l-377,1c-208,0-378-3-378-6c0-4,25-47,56-95l56-89h329c181,0,329-4,329-8
		c0-5-18-57-41-117c-22-59-48-142-56-184c-25-119-74-158-351-285l-143-66l-137-1c-75-1-207-5-292-8c-133-6-151-8-127-19
		c480-209,604-262,610-262c4,0,119,66,255,146s251,146,255,147c5,1,45-55,90-124c126-195,181-249,253-249c24,0,44,3,44,8
		c0,4-20,110-45,236s-45,234-45,240s18-29,39-79c105-247,204-408,356-577l96-108h-188h-188l-234-185c-129-102-238-185-242-185
		s-11,10-14,23c-19,61-108,342-110,345c-1,1-41-21-88-50l-86-53l-1-562v-562l-47,5c-27,2-201,16-387,29c-187,14-341,27-343,29
		c-3,2-49,199-104,438c-54,238-112,488-128,555l-29,122l49,253c27,139,49,256,49,261c0,10-69,9-112-3c-120-34-173-171-173-445
		c0-187,26-320,105-549c11-33,19-61,17-62c-2-2-91,75-198,170l-194,174l-67-66c-38-37-68-69-68-72s69-65,153-137
		c171-147,328-304,310-310c-22-8-184,63-475,209l-297,149l-27,72c-61,162-79,205-89,207c-17,3-286-102-283-111c5-14,400-429,417-438
		c9-5,131-50,271-101s265-96,276-100c19-8-14-43-283-313l-305-304l-10-169c-7-121-7-192,1-248c6-44,10-80,8-82c-5-5-162,98-165,109
		c-1,6,35,141,80,299l83,286l203,216l203,216h-175h-175l-211,125c-344,205-532,359-729,598l-104,125l-181-133l-181-133l-3-656
		l-2-655l197-266l197-265l221-126c242-138,446-241,542-273c61-21,173-29,173-13c0,5-13,112-30,238c-16,126-29,234-29,239
		c0,6,9-17,20-50c10-33,51-165,91-292l73-233h45c86,0,133-49,195-204l36-88l-36-166c-115-531-204-885-232-929c-6-8-112,32-352,133
		c-189,79-353,144-365,144c-12,1-191-18-399-42l-379-42l-265-206l-265-205l-205-390l-204-390l6-180c3-99,10-310,15-470
		c5-159,14-436,20-615l11-325l206-530l205-530l386-581l386-581l543-399l543-400l474-113l473-114l329,61l329,62l362,362l361,363
		l42,195c44,208,85,346,131,448c32,71,115,182,136,182c17,0,534-115,903-201l254-59l46,32c96,68,310,229,310,233c0,2-18,46-40,97
		c-76,175-82,203-86,403c-4,212-14,300-58,534l-33,173l-104,107c-57,58-179,183-271,276l-167,170l28,65c16,36,114,263,219,505
		c104,242,229,528,277,635c115,259,364,760,412,832c36,53,158,188,170,188c3,0,3-30,0-67c-8-98-53-213-200-508l-130-260l7-887l6-886
		l339-723l339-722l347-424c236-288,364-436,399-462c125-91,440-303,533-359c129-78,376-209,473-252c157-69,382-134,569-165
		c126-21,240-16,443,19c123,22,581,138,605,155c12,7,520,623,550,666c15,22,52,170,132,530l111,500l-105,612l-105,613l-94,192
		c-51,106-206,420-344,698l-250,505l-534,532l-533,531l-460,220l-460,220l-470,16c-259,9-495,16-525,16h-56l-155,153
		c-149,145-241,256-373,447c-85,124-123,185-292,479l-151,263l50,82c27,44,54,86,59,93c7,9,33-2,100-44l91-56l95,104
		c206,225,381,379,432,379c49,0,263-192,653-585l338-340l-116-3c-63-1-115-6-115-10s16-55,36-114c22-67,41-108,49-108s179-11,380-25
		s372-22,378-18c7,4,103,80,214,170l202,163l-226,412l-226,413l-391,188l-392,188l-172,237c-235,324-325,436-472,582
		c-133,132-224,247-339,428c-146,230-251,441-297,605c-42,145-86,226-173,312c-41,41-76,73-78,72c-1-2,25-77,57-167
		c33-91,60-170,60-177c0-16-388-428-404-428c-19,0-335,168-336,179c0,4,50,89,112,187l111,179h119h118v239v238l235,217l235,218
		l-1,166v167l-242,314l-242,313l-269,139l-269,139h-376h-376L6320,12230z M7312,11930l337-309l-35-98c-20-54-36-99-38-100
		c-1-1-77,99-170,222l-168,225l-339,177c-186,98-338,181-339,186c0,4,93,7,208,7h207L7312,11930z M6655,11854c59-36,291-216,415-322
		l35-31l-149-3l-148-3l-102,113c-151,169-218,276-190,305C6526,11922,6581,11899,6655,11854z M6484,11104c19-18,20-28,6-55
		c-20-37-80-18-80,26C6410,11117,6454,11134,6484,11104z M7486,9568c361-366,565-630,882-1145l181-293l-122-63
		c-67-36-197-103-289-151l-168-87l-256,51c-141,29-263,54-271,57c-11,5-14,1-9-13c3-10,25-106,49-211l44-193l-129-167
		c-71-93-133-172-138-177c-6-6-630,70-732,90c-27,5-28,4-28-38c0-59,41-126,141-232l81-86h352h351l171-172c252-256,304-328,304-422
		v-56h-70c-78,0-124,14-295,93c-380,174-753,434-1109,772c-156,148-191,186-189,206c2,13,23,220,48,460s45,448,45,462
		c0,20-28,49-146,147c-80,67-147,120-149,118s-7-77-11-167s-10-157-14-150c-4,8-37,114-74,236l-66,222l55,348c31,191,59,356,63,365
		c4,10,147,112,317,227l310,210l316,1h316L7486,9568z M4695,8940l59-60h-124h-124l59,60c33,33,62,60,65,60S4662,8973,4695,8940z
		 M4970,8026l131-777l129-197l129-197l88-46c615-325,1029-551,1308-717c138-82,473-288,484-298c2-1-20-63-48-136s-51-137-51-141
		s44-7,98-7c115-1,231-20,298-49c72-32,174-94,174-107c0-6-175-393-388-860l-388-849l-95-3l-94-3l114,115l114,114l-7,984
		c-4,540-11,986-14,990c-4,3-343,193-753,422l-746,416l-214,251l-214,251l-52,297c-113,647-143,889-143,1155c0,99,2,177,5,175
		C4837,8806,4898,8454,4970,8026z M6018,8018c32-32-4-87-48-73c-25,8-37,50-20,70C5965,8033,6001,8035,6018,8018z M9869,7884
		c188-87,371-248,371-326c0-42-41-80-77-73c-126,27-360,89-370,99c-7,6-28,55-48,109c-37,104-47,201-23,225
		C9739,7935,9780,7926,9869,7884z M6008,7763l40-103l-42-105c-24-58-46-109-50-112c-3-4-6,94-6,217s4,220,8,215
		C5963,7869,5985,7819,6008,7763z M4814,6934c-3-149-52-151-148-4c-25,38-46,72-46,75s44,4,98,3l97-3L4814,6934z M4437,6748
		c-7-223-17-331-74-760l-38-288h-92c-51,0-93,4-93,9c0,39,86,632,106,731c27,132,66,282,89,337c19,44,94,173,102,173
		C4440,6950,4440,6859,4437,6748z M4711,6272l116-208l-28-353c-16-195-29-357-31-362s-69,40-149,99l-145,109l56,461
		c30,254,57,462,60,462S4647,6386,4711,6272z M5908,6027c141-99,182-133,182-150c0-12-34-275-76-585l-77-563l37-118
		c39-126,56-221,38-221c-16,0-156,153-322,353l-155,187l-36,203l-36,202l18,60c174,606,225,773,234,767
		C5720,6159,5807,6098,5908,6027z M8650,5890v-100h-59c-65,0-117,15-125,35c-8,22,40,73,114,121c36,23,66,43,68,43
		C8649,5990,8650,5945,8650,5890z M3250,5846c69-15,170-41,225-58c124-38,367-126,379-138c19-19-79-549-279-1515
		c-141-680-236-1109-271-1227c-5-17,17-18,370-18c207,0,376-3,376-6s25-103,55-222s55-228,55-242s-25-119-54-233l-53-208l36-23
		c20-13,52-28,71-34c80-26,394-60,1026-112c505-41,775-67,807-76c16-5,18-13,12-57c-16-122-79-335-150-508c-59-144-107-234-202-379
		l-76-115l-321-153l-321-152h-91c-194,0-461,42-638,101c-107,36-402,184-577,290c-224,136-563,357-585,381c-27,30-726,936-747,968
		c-8,14-97,223-197,465s-210,508-244,590l-63,150l-6,130c-3,72-20,408-37,747l-32,617l178,326l179,327l305,209l305,210l220-4
		C3095,5873,3142,5869,3250,5846z M9870,5708l345-103l457-305l456-305l436-577l435-577l210-548l210-548l10-653l10-653l-98-217
		c-54-119-131-290-171-379c-40-90-78-167-84-172s-167-97-357-204l-347-194l-193,8c-336,14-576,74-835,209c-235,123-359,201-718,454
		l-228,161l-162,220c-353,479-519,767-869,1507l-134,283l-12,210c-6,116-25,439-41,719l-30,508l76,226c108,323,187,477,228,443
		c61-50,291-478,667-1238l317-641l299-326l298-325l3,131l3,131l-163,156c-90,85-213,205-275,266l-112,110l-435,975l-435,975l106,107
		l107,107l31-47c18-26,168-265,335-532c479-767,733-1141,957-1407c183-217,267-348,319-500l29-83h63c104,0,149,38,118,99
		c-20,37-123,168-195,246c-132,144-437,590-753,1100c-250,404-710,1166-706,1170c7,7,433,113,458,114C9514,5810,9680,5764,9870,5708
		z M4184,5450l89-54l-7-81c-4-44-29-343-57-665c-27-322-52-627-56-678l-6-93l-142-224l-142-225l19-92c30-146,56-332,47-342
		c-4-4-29,7-56,25c-114,78-293,211-293,217c0,5,47,230,104,502c204,967,332,1543,376,1695c11,38,20,71,20,73
		C4080,5512,4082,5511,4184,5450z M4598,5124c70-59,128-112,130-119s-22-160-52-340c-31-180-56-335-56-345c0-12,116-90,380-256
		l380-239v-92v-93h-573h-573l18,138c39,288,199,1418,204,1435c3,9,7,17,10,17S4528,5182,4598,5124z M5050,3526
		c207-30,339-59,543-120c62-19,145-44,185-55l72-22v-126v-125l-87,6c-252,19-387,45-933,184l-385,97l-3,94l-3,94l253-6
		C4831,3544,4992,3534,5050,3526z M6233,3335l56-90l-20-80c-30-121-67-227-89-255l-19-25l-12,30c-9,21-14,115-17,305l-3,275l24-35
		C6166,3441,6202,3385,6233,3335z M6780,3401c0-37-9-67-37-123c-35-69-201-317-213-318c-3,0-15,55-28,123c-12,67-33,177-46,245
		l-23,122h173h174V3401z M7322,3144c95-86,181-164,192-174c18-17,16-19-40-56c-130-83-240-114-405-114h-99v78c0,81,22,167,62,245
		c25,50,106,177,113,177C7147,3300,7227,3230,7322,3144z M5195,3000c678-178,680-179,674-183c-14-9-432,15-569,32
		c-459,59-780,131-855,193l-37,31l53,53c32,32,60,52,69,50C4538,3173,4838,3094,5195,3000z M6369,2467c49-233,63-283,83-305
		c89-98,258-292,258-296c0-3-83-6-186-6h-185l-14,34c-60,143-127,433-144,621c-21,228-28,196,48,243l66,41l8-27
		C6307,2757,6337,2620,6369,2467z M4663,2755c468-62,1314-187,1322-197c2-3,55-655,55-679c0-13-10-14-87-2c-96,13-473,52-1113,113
		l-414,39l-95,95l-95,95l48,218c26,120,55,248,63,286c10,44,20,67,29,67C4384,2790,4513,2774,4663,2755z M7620,2538
		c0-157-11-282-25-296c-21-21-242,208-307,319c-28,47-38,75-38,106v43h185h185V2538z"/>
	<path class="st0" d="M4460,11221c-503-138-740-234-1079-434l-144-85l-183-343l-183-344l36-37c73-75,146-89,186-35
		c44,57,94,168,148,325l53,154l185,126c335,229,601,374,890,487c161,63,270,115,317,150c29,22,34,32,34,66c0,21-3,39-7,38
		C4708,11289,4595,11258,4460,11221z"/>
	<path class="st0" d="M1360,465v-84l33-5c186-28,2222-103,2072-76c-65,12-852,118-1255,170c-461,58-664,80-762,80h-88V465z"/>
	<path class="st0" d="M8460,285c-74-30-132-54-129-54c4-1,65-14,137-30c296-68,487-82,1162-86c294-2,528-2,520,1
		c-8,2-328,49-710,104c-382,56-724,105-760,110s-69,9-75,9C8600,339,8534,315,8460,285z"/>
	<path class="st0" d="M1135,259c-226-3-567-7-759-8c-192,0-347-4-344-7s127-20,274-39c428-54,885-87,1379-100c116-3,279-8,363-11
		l152-6v91v91l-327-2C1692,267,1361,263,1135,259z"/>
</g>
</svg>
